{"title":"Gotham Comedy Live 2015 09 10 Billy Gardell HDTV x264-DaViEW","uid":12402555,"size":419956405,"categoryP":"video","categoryS":"tv_shows","magnet":"?xt=urn:btih:2d4dc80030b68465c3189d2efaae041b78838e8d&amp;dn=Gotham+Comedy+Live+2015+09+10+Billy+Gardell+HDTV+x264-DaViEW&amp;tr=udp%3A%2F%2Ftracker.openbittorrent.com%3A80&amp;tr=udp%3A%2F%2Fopen.demonii.com%3A1337&amp;tr=udp%3A%2F%2Ftracker.coppersurfer.tk%3A6969&amp;tr=udp%3A%2F%2Fexodus.desync.com%3A6969","seeders":1,"leechers":0,"uploader":"toots2boots","files":1,"time":1442048406,"description":"Live Comedy show shot at The Gotham Comedy Club in New York\nBuilding on our promise to bring you more LIVE programming than anyone else, AXS TV dives deep into the world of comedy with Gotham Comedy LIVE. Another round of great LIVE standup comes your way starting May 16! Tune in each Thursday as some of the funniest comics in America perform LIVE from the Legendary Gotham Comedy Club in New York.\n\nGeneral\nComplete name                            : M:PostsGotham Comedy Live 2015 09 10 Billy Gardell HDTV x264-DaViEWgotham.comedy.live.2015.09.10.billy.gardell.hdtv.x264-daview.mp4\nFormat                                   : MPEG-4\nFormat profile                           : Base Media\nCodec ID                                 : isom\nFile size                                : 401 MiB\nDuration                                 : 51mn 55s\nOverall bit rate mode                    : Variable\nOverall bit rate                         : 1 078 Kbps\nEncoded date                             : UTC 2015-09-10 21:07:37\nTagged date                              : UTC 2015-09-10 21:07:37\n\nVideo\nID                                       : 1\nFormat                                   : AVC\nFormat/Info                              : Advanced Video Codec\nFormat profile                           : &lt;a class=&quot;__cf_email__&quot; href=&quot;/cdn-cgi/l/email-protection&quot; data-cfemail=&quot;5d15343a351d116e736c&quot;&gt;[email&amp;#160;protected]&lt;/a&gt;&lt;script data-cfhash='f9e31' type=&quot;text/javascript&quot;&gt;\n/* &lt;![CDATA[ */!function(){try{var t=&quot;currentScript&quot;in document?document.currentScript:function(){for(var t=document.getElementsByTagName(&quot;script&quot;),e=t.length;e--;)if(t[e].getAttribute(&quot;data-cfhash&quot;))return t[e]}();if(t&amp;&amp;t.previousSibling){var e,r,n,i,c=t.previousSibling,a=c.getAttribute(&quot;data-cfemail&quot;);if(a){for(e=&quot;&quot;,r=parseInt(a.substr(0,2),16),n=2;a.length-n;n+=2)i=parseInt(a.substr(n,2),16)^r,e+=String.fromCharCode(i);e=document.createTextNode(e),c.parentNode.replaceChild(e,c)}t.parentNode.removeChild(t);}}catch(u){}}()/* ]]&gt; */&lt;/script&gt;\nFormat settings, CABAC                   : Yes\nFormat settings, ReFrames                : 5 frames\nCodec ID                                 : avc1\nCodec ID/Info                            : Advanced Video Coding\nDuration                                 : 51mn 55s\nBit rate                                 : 962 Kbps\nMaximum bit rate                         : 3 174 Kbps\nWidth                                    : 720 pixels\nHeight                                   : 404 pixels\nDisplay aspect ratio                     : 16:9\nFrame rate mode                          : Constant\nFrame rate                               : 29.970 fps\nColor space                              : YUV\nChroma subsampling                       : 4:2:0\nBit depth                                : 8 bits\nScan type                                : Progressive\nBits/(Pixel*Frame)                       : 0.110\nStream size                              : 357 MiB (89%)\nTitle                                    : Imported with GPAC 0.4.6-DEV (build 1)\nWriting library                          : x264 core 107 r1745 4785e8e\nEncoding settings                        : cabac=1 / ref=5 / deblock=1:0:0 / analyse=0x3:0x113 / me=umh / subme=8 / psy=1 / psy_rd=1.00:0.00 / mixed_ref=1 / me_range=16 / chroma_me=1 / trellis=1 / 8x8dct=1 / cqm=0 / deadzone=21,11 / fast_pskip=1 / chroma_qp_offset=-2 / threads=6 / sliced_threads=0 / nr=0 / decimate=1 / interlaced=0 / constrained_intra=0 / bframes=3 / b_pyramid=2 / b_adapt=2 / b_bias=0 / direct=3 / weightb=1 / open_gop=0 / weightp=2 / keyint=250 / keyint_min=25 / scenecut=40 / intra_refresh=0 / rc_lookahead=50 / rc=crf / mbtree=1 / crf=22.0 / qcomp=0.60 / qpmin=10 / qpmax=51 / qpstep=4 / ip_ratio=1.40 / aq=1:1.00\nEncoded date                             : UTC 2015-09-10 21:07:37\nTagged date                              : UTC 2015-09-10 21:07:46\n\nAudio\nID                                       : 2\nFormat                                   : AAC\nFormat/Info                              : Advanced Audio Codec\nFormat profile                           : LC\nCodec ID                                 : 40\nDuration                                 : 51mn 55s\nBit rate mode                            : Variable\nBit rate                                 : 112 Kbps\nMaximum bit rate                         : 128 Kbps\nChannel(s)                               : 2 channels\nChannel positions                        : Front: L R\nSampling rate                            : 48.0 KHz\nCompression mode                         : Lossy\nStream size                              : 41.6 MiB (10%)\nEncoded date                             : UTC 2015-09-10 21:07:45\nTagged date                              : UTC 2015-09-10 21:07:46","torrent":{"xt":"urn:btih:2d4dc80030b68465c3189d2efaae041b78838e8d","amp;dn":"Gotham+Comedy+Live+2015+09+10+Billy+Gardell+HDTV+x264-DaViEW","amp;tr":["udp%3A%2F%2Ftracker.openbittorrent.com%3A80","udp%3A%2F%2Fopen.demonii.com%3A1337","udp%3A%2F%2Ftracker.coppersurfer.tk%3A6969","udp%3A%2F%2Fexodus.desync.com%3A6969"],"infoHash":"2d4dc80030b68465c3189d2efaae041b78838e8d","infoHashBuffer":{"type":"Buffer","data":[45,77,200,0,48,182,132,101,195,24,157,46,250,174,4,27,120,131,142,141]},"announce":[],"urlList":[]}}